<?xml version="1.0" encoding="utf-8" standalone="no"?>
<!DOCTYPE svg PUBLIC "-//W3C//DTD SVG 1.1//EN"
  "http://www.w3.org/Graphics/SVG/1.1/DTD/svg11.dtd">
<svg xmlns:xlink="http://www.w3.org/1999/xlink" width="460.8pt" height="345.6pt" viewBox="0 0 460.8 345.6" xmlns="http://www.w3.org/2000/svg" version="1.1">
 <metadata>
  <rdf:RDF xmlns:dc="http://purl.org/dc/elements/1.1/" xmlns:cc="http://creativecommons.org/ns#" xmlns:rdf="http://www.w3.org/1999/02/22-rdf-syntax-ns#">
   <cc:Work>
    <dc:type rdf:resource="http://purl.org/dc/dcmitype/StillImage"/>
    <dc:date>2025-10-09T20:42:56.966134</dc:date>
    <dc:format>image/svg+xml</dc:format>
    <dc:creator>
     <cc:Agent>
      <dc:title>Matplotlib v3.10.6, https://matplotlib.org/</dc:title>
     </cc:Agent>
    </dc:creator>
   </cc:Work>
  </rdf:RDF>
 </metadata>
 <defs>
  <style type="text/css">*{stroke-linejoin: round; stroke-linecap: butt}</style>
 </defs>
 <g id="figure_1">
  <g id="patch_1">
   <path d="M 0 345.6 
L 460.8 345.6 
L 460.8 0 
L 0 0 
z
" style="fill: #ffffff"/>
  </g>
  <g id="patch_2">
   <path d="M 103.104 307.584 
L 369.216 307.584 
L 369.216 41.472 
L 103.104 41.472 
z
" style="fill: #ffffff"/>
  </g>
  <g id="pane3d_1">
   <g id="patch_3">
    <path d="M 126.695271 220.630267 
L 210.460124 88.72243 
L 207.966903 37.169498 
L 116.716359 178.807394 
" style="fill: #f2f2f2; opacity: 0.5; stroke: #f2f2f2; stroke-linejoin: miter"/>
   </g>
  </g>
  <g id="pane3d_2">
   <g id="patch_4">
    <path d="M 210.460124 88.72243 
L 351.211284 163.797893 
L 360.896633 117.681913 
L 207.966903 37.169498 
" style="fill: #e6e6e6; opacity: 0.5; stroke: #e6e6e6; stroke-linejoin: miter"/>
   </g>
  </g>
  <g id="pane3d_3">
   <g id="patch_5">
    <path d="M 126.695271 220.630267 
L 270.658815 300.964085 
L 351.211284 163.797893 
L 210.460124 88.72243 
" style="fill: #ececec; opacity: 0.5; stroke: #ececec; stroke-linejoin: miter"/>
   </g>
  </g>
  <g id="grid3d_1">
   <g id="Line3DCollection_1">
    <path d="M 135.68756 225.648099 
L 219.257213 93.414722 
L 217.510369 42.193815 
" style="fill: none; stroke: #b0b0b0; stroke-width: 0.8"/>
    <path d="M 156.326285 237.164817 
L 239.445177 104.182809 
L 239.418601 53.727771 
" style="fill: none; stroke: #b0b0b0; stroke-width: 0.8"/>
    <path d="M 177.083997 248.747932 
L 259.745665 115.010916 
L 261.459415 65.331526 
" style="fill: none; stroke: #b0b0b0; stroke-width: 0.8"/>
    <path d="M 197.961725 260.398017 
L 280.159621 125.899545 
L 283.634018 77.005717 
" style="fill: none; stroke: #b0b0b0; stroke-width: 0.8"/>
    <path d="M 218.960514 272.115657 
L 300.687998 136.849205 
L 305.943631 88.750986 
" style="fill: none; stroke: #b0b0b0; stroke-width: 0.8"/>
    <path d="M 240.081421 283.90144 
L 321.331762 147.860412 
L 328.389492 100.567985 
" style="fill: none; stroke: #b0b0b0; stroke-width: 0.8"/>
    <path d="M 261.325513 295.755962 
L 342.091887 158.933685 
L 350.972852 112.457373 
" style="fill: none; stroke: #b0b0b0; stroke-width: 0.8"/>
   </g>
  </g>
  <g id="grid3d_2">
   <g id="Line3DCollection_2">
    <path d="M 121.010728 172.141731 
L 130.626455 214.439676 
L 274.441622 294.522653 
" style="fill: none; stroke: #b0b0b0; stroke-width: 0.8"/>
    <path d="M 132.392015 154.475847 
L 141.050394 198.024686 
L 284.470987 277.444471 
" style="fill: none; stroke: #b0b0b0; stroke-width: 0.8"/>
    <path d="M 143.672037 136.967145 
L 151.389035 181.744018 
L 294.416651 260.508815 
" style="fill: none; stroke: #b0b0b0; stroke-width: 0.8"/>
    <path d="M 154.852139 119.613538 
L 161.64342 165.596031 
L 304.279658 243.713909 
" style="fill: none; stroke: #b0b0b0; stroke-width: 0.8"/>
    <path d="M 165.933643 102.412973 
L 171.814575 149.579109 
L 314.061034 227.058007 
" style="fill: none; stroke: #b0b0b0; stroke-width: 0.8"/>
    <path d="M 176.917847 85.363434 
L 181.90351 133.691663 
L 323.761788 210.539388 
" style="fill: none; stroke: #b0b0b0; stroke-width: 0.8"/>
    <path d="M 187.806028 68.462942 
L 191.911217 117.93213 
L 333.382913 194.156364 
" style="fill: none; stroke: #b0b0b0; stroke-width: 0.8"/>
    <path d="M 198.59944 51.709551 
L 201.838674 102.29897 
L 342.925385 177.90727 
" style="fill: none; stroke: #b0b0b0; stroke-width: 0.8"/>
   </g>
  </g>
  <g id="grid3d_3">
   <g id="Line3DCollection_3">
    <path d="M 351.711914 161.414183 
L 210.331049 86.053509 
L 126.180079 218.471032 
" style="fill: none; stroke: #b0b0b0; stroke-width: 0.8"/>
    <path d="M 353.898885 151.001105 
L 209.76745 74.39985 
L 123.928715 209.03528 
" style="fill: none; stroke: #b0b0b0; stroke-width: 0.8"/>
    <path d="M 356.172999 140.173098 
L 209.18184 62.291052 
L 121.586289 199.217882 
" style="fill: none; stroke: #b0b0b0; stroke-width: 0.8"/>
    <path d="M 358.539572 128.904859 
L 208.572903 49.69992 
L 119.147165 188.995204 
" style="fill: none; stroke: #b0b0b0; stroke-width: 0.8"/>
   </g>
  </g>
  <g id="axis3d_1">
   <g id="line2d_1">
    <path d="M 126.695271 220.630267 
L 270.658815 300.964085 
" style="fill: none; stroke: #000000; stroke-width: 0.8; stroke-linecap: square"/>
   </g>
   <g id="xtick_1">
    <g id="line2d_2">
     <path d="M 136.378745 224.554427 
L 134.304056 227.837235 
" style="fill: none; stroke: #000000; stroke-width: 0.8; stroke-linecap: square"/>
    </g>
    <g id="text_1">
     <!-- 500 -->
     <g transform="translate(119.699535 247.695194) scale(0.1 -0.1)">
      <defs>
       <path id="DejaVuSans-35" d="M 691 4666 
L 3169 4666 
L 3169 4134 
L 1269 4134 
L 1269 2991 
Q 1406 3038 1543 3061 
Q 1681 3084 1819 3084 
Q 2600 3084 3056 2656 
Q 3513 2228 3513 1497 
Q 3513 744 3044 326 
Q 2575 -91 1722 -91 
Q 1428 -91 1123 -41 
Q 819 9 494 109 
L 494 744 
Q 775 591 1075 516 
Q 1375 441 1709 441 
Q 2250 441 2565 725 
Q 2881 1009 2881 1497 
Q 2881 1984 2565 2268 
Q 2250 2553 1709 2553 
Q 1456 2553 1204 2497 
Q 953 2441 691 2322 
L 691 4666 
z
" transform="scale(0.015625)"/>
       <path id="DejaVuSans-30" d="M 2034 4250 
Q 1547 4250 1301 3770 
Q 1056 3291 1056 2328 
Q 1056 1369 1301 889 
Q 1547 409 2034 409 
Q 2525 409 2770 889 
Q 3016 1369 3016 2328 
Q 3016 3291 2770 3770 
Q 2525 4250 2034 4250 
z
M 2034 4750 
Q 2819 4750 3233 4129 
Q 3647 3509 3647 2328 
Q 3647 1150 3233 529 
Q 2819 -91 2034 -91 
Q 1250 -91 836 529 
Q 422 1150 422 2328 
Q 422 3509 836 4129 
Q 1250 4750 2034 4750 
z
" transform="scale(0.015625)"/>
      </defs>
      <use xlink:href="#DejaVuSans-35"/>
      <use xlink:href="#DejaVuSans-30" transform="translate(63.623047 0)"/>
      <use xlink:href="#DejaVuSans-30" transform="translate(127.246094 0)"/>
     </g>
    </g>
   </g>
   <g id="xtick_2">
    <g id="line2d_3">
     <path d="M 157.013807 236.06485 
L 154.950112 239.366559 
" style="fill: none; stroke: #000000; stroke-width: 0.8; stroke-linecap: square"/>
    </g>
    <g id="text_2">
     <!-- 1000 -->
     <g transform="translate(137.058028 259.208342) scale(0.1 -0.1)">
      <defs>
       <path id="DejaVuSans-31" d="M 794 531 
L 1825 531 
L 1825 4091 
L 703 3866 
L 703 4441 
L 1819 4666 
L 2450 4666 
L 2450 531 
L 3481 531 
L 3481 0 
L 794 0 
L 794 531 
z
" transform="scale(0.015625)"/>
      </defs>
      <use xlink:href="#DejaVuSans-31"/>
      <use xlink:href="#DejaVuSans-30" transform="translate(63.623047 0)"/>
      <use xlink:href="#DejaVuSans-30" transform="translate(127.246094 0)"/>
      <use xlink:href="#DejaVuSans-30" transform="translate(190.869141 0)"/>
     </g>
    </g>
   </g>
   <g id="xtick_3">
    <g id="line2d_4">
     <path d="M 177.767801 247.641615 
L 175.71526 250.962389 
" style="fill: none; stroke: #000000; stroke-width: 0.8; stroke-linecap: square"/>
    </g>
    <g id="text_3">
     <!-- 1500 -->
     <g transform="translate(157.715723 270.787605) scale(0.1 -0.1)">
      <use xlink:href="#DejaVuSans-31"/>
      <use xlink:href="#DejaVuSans-35" transform="translate(63.623047 0)"/>
      <use xlink:href="#DejaVuSans-30" transform="translate(127.246094 0)"/>
      <use xlink:href="#DejaVuSans-30" transform="translate(190.869141 0)"/>
     </g>
    </g>
   </g>
   <g id="xtick_4">
    <g id="line2d_5">
     <path d="M 198.641758 259.285296 
L 196.600535 262.6253 
" style="fill: none; stroke: #000000; stroke-width: 0.8; stroke-linecap: square"/>
    </g>
    <g id="text_4">
     <!-- 2000 -->
     <g transform="translate(178.492388 282.433555) scale(0.1 -0.1)">
      <defs>
       <path id="DejaVuSans-32" d="M 1228 531 
L 3431 531 
L 3431 0 
L 469 0 
L 469 531 
Q 828 903 1448 1529 
Q 2069 2156 2228 2338 
Q 2531 2678 2651 2914 
Q 2772 3150 2772 3378 
Q 2772 3750 2511 3984 
Q 2250 4219 1831 4219 
Q 1534 4219 1204 4116 
Q 875 4013 500 3803 
L 500 4441 
Q 881 4594 1212 4672 
Q 1544 4750 1819 4750 
Q 2544 4750 2975 4387 
Q 3406 4025 3406 3419 
Q 3406 3131 3298 2873 
Q 3191 2616 2906 2266 
Q 2828 2175 2409 1742 
Q 1991 1309 1228 531 
z
" transform="scale(0.015625)"/>
      </defs>
      <use xlink:href="#DejaVuSans-32"/>
      <use xlink:href="#DejaVuSans-30" transform="translate(63.623047 0)"/>
      <use xlink:href="#DejaVuSans-30" transform="translate(127.246094 0)"/>
      <use xlink:href="#DejaVuSans-30" transform="translate(190.869141 0)"/>
     </g>
    </g>
   </g>
   <g id="xtick_5">
    <g id="line2d_6">
     <path d="M 219.63672 270.996475 
L 217.606982 274.355877 
" style="fill: none; stroke: #000000; stroke-width: 0.8; stroke-linecap: square"/>
    </g>
    <g id="text_5">
     <!-- 2500 -->
     <g transform="translate(199.389054 294.146769) scale(0.1 -0.1)">
      <use xlink:href="#DejaVuSans-32"/>
      <use xlink:href="#DejaVuSans-35" transform="translate(63.623047 0)"/>
      <use xlink:href="#DejaVuSans-30" transform="translate(127.246094 0)"/>
      <use xlink:href="#DejaVuSans-30" transform="translate(190.869141 0)"/>
     </g>
    </g>
   </g>
   <g id="xtick_6">
    <g id="line2d_7">
     <path d="M 240.753744 282.775741 
L 238.735658 286.154711 
" style="fill: none; stroke: #000000; stroke-width: 0.8; stroke-linecap: square"/>
    </g>
    <g id="text_6">
     <!-- 3000 -->
     <g transform="translate(220.406763 305.927832) scale(0.1 -0.1)">
      <defs>
       <path id="DejaVuSans-33" d="M 2597 2516 
Q 3050 2419 3304 2112 
Q 3559 1806 3559 1356 
Q 3559 666 3084 287 
Q 2609 -91 1734 -91 
Q 1441 -91 1130 -33 
Q 819 25 488 141 
L 488 750 
Q 750 597 1062 519 
Q 1375 441 1716 441 
Q 2309 441 2620 675 
Q 2931 909 2931 1356 
Q 2931 1769 2642 2001 
Q 2353 2234 1838 2234 
L 1294 2234 
L 1294 2753 
L 1863 2753 
Q 2328 2753 2575 2939 
Q 2822 3125 2822 3475 
Q 2822 3834 2567 4026 
Q 2313 4219 1838 4219 
Q 1578 4219 1281 4162 
Q 984 4106 628 3988 
L 628 4550 
Q 988 4650 1302 4700 
Q 1616 4750 1894 4750 
Q 2613 4750 3031 4423 
Q 3450 4097 3450 3541 
Q 3450 3153 3228 2886 
Q 3006 2619 2597 2516 
z
" transform="scale(0.015625)"/>
      </defs>
      <use xlink:href="#DejaVuSans-33"/>
      <use xlink:href="#DejaVuSans-30" transform="translate(63.623047 0)"/>
      <use xlink:href="#DejaVuSans-30" transform="translate(127.246094 0)"/>
      <use xlink:href="#DejaVuSans-30" transform="translate(190.869141 0)"/>
     </g>
    </g>
   </g>
   <g id="xtick_7">
    <g id="line2d_8">
     <path d="M 261.993896 294.623689 
L 259.987633 298.022398 
" style="fill: none; stroke: #000000; stroke-width: 0.8; stroke-linecap: square"/>
    </g>
    <g id="text_7">
     <!-- 3500 -->
     <g transform="translate(241.546571 317.777335) scale(0.1 -0.1)">
      <use xlink:href="#DejaVuSans-33"/>
      <use xlink:href="#DejaVuSans-35" transform="translate(63.623047 0)"/>
      <use xlink:href="#DejaVuSans-30" transform="translate(127.246094 0)"/>
      <use xlink:href="#DejaVuSans-30" transform="translate(190.869141 0)"/>
     </g>
    </g>
   </g>
   <g id="text_8">
    <!-- |V| -->
    <g transform="translate(176.578296 294.281279) scale(0.1 -0.1)">
     <defs>
      <path id="DejaVuSans-7c" d="M 1344 4891 
L 1344 -1509 
L 813 -1509 
L 813 4891 
L 1344 4891 
z
" transform="scale(0.015625)"/>
      <path id="DejaVuSans-56" d="M 1831 0 
L 50 4666 
L 709 4666 
L 2188 738 
L 3669 4666 
L 4325 4666 
L 2547 0 
L 1831 0 
z
" transform="scale(0.015625)"/>
     </defs>
     <use xlink:href="#DejaVuSans-7c"/>
     <use xlink:href="#DejaVuSans-56" transform="translate(33.691406 0)"/>
     <use xlink:href="#DejaVuSans-7c" transform="translate(102.099609 0)"/>
    </g>
   </g>
  </g>
  <g id="axis3d_2">
   <g id="line2d_9">
    <path d="M 351.211284 163.797893 
L 270.658815 300.964085 
" style="fill: none; stroke: #000000; stroke-width: 0.8; stroke-linecap: square"/>
   </g>
   <g id="xtick_8">
    <g id="line2d_10">
     <path d="M 273.268229 293.869254 
L 276.789537 295.830082 
" style="fill: none; stroke: #000000; stroke-width: 0.8; stroke-linecap: square"/>
    </g>
    <g id="text_9">
     <!-- 0.0 -->
     <g transform="translate(278.362595 311.590968) scale(0.1 -0.1)">
      <defs>
       <path id="DejaVuSans-2e" d="M 684 794 
L 1344 794 
L 1344 0 
L 684 0 
L 684 794 
z
" transform="scale(0.015625)"/>
      </defs>
      <use xlink:href="#DejaVuSans-30"/>
      <use xlink:href="#DejaVuSans-2e" transform="translate(63.623047 0)"/>
      <use xlink:href="#DejaVuSans-30" transform="translate(95.410156 0)"/>
     </g>
    </g>
   </g>
   <g id="xtick_9">
    <g id="line2d_11">
     <path d="M 283.300909 276.796535 
L 286.812264 278.740963 
" style="fill: none; stroke: #000000; stroke-width: 0.8; stroke-linecap: square"/>
    </g>
    <g id="text_10">
     <!-- 0.5 -->
     <g transform="translate(288.290893 294.561129) scale(0.1 -0.1)">
      <use xlink:href="#DejaVuSans-30"/>
      <use xlink:href="#DejaVuSans-2e" transform="translate(63.623047 0)"/>
      <use xlink:href="#DejaVuSans-35" transform="translate(95.410156 0)"/>
     </g>
    </g>
   </g>
   <g id="xtick_10">
    <g id="line2d_12">
     <path d="M 293.249874 259.866275 
L 296.751319 261.794508 
" style="fill: none; stroke: #000000; stroke-width: 0.8; stroke-linecap: square"/>
    </g>
    <g id="text_11">
     <!-- 1.0 -->
     <g transform="translate(298.136758 277.672685) scale(0.1 -0.1)">
      <use xlink:href="#DejaVuSans-31"/>
      <use xlink:href="#DejaVuSans-2e" transform="translate(63.623047 0)"/>
      <use xlink:href="#DejaVuSans-30" transform="translate(95.410156 0)"/>
     </g>
    </g>
   </g>
   <g id="xtick_11">
    <g id="line2d_13">
     <path d="M 303.116167 243.076698 
L 306.607746 244.988938 
" style="fill: none; stroke: #000000; stroke-width: 0.8; stroke-linecap: square"/>
    </g>
    <g id="text_12">
     <!-- 1.5 -->
     <g transform="translate(307.901212 260.923884) scale(0.1 -0.1)">
      <use xlink:href="#DejaVuSans-31"/>
      <use xlink:href="#DejaVuSans-2e" transform="translate(63.623047 0)"/>
      <use xlink:href="#DejaVuSans-35" transform="translate(95.410156 0)"/>
     </g>
    </g>
   </g>
   <g id="xtick_12">
    <g id="line2d_14">
     <path d="M 312.900815 226.426058 
L 316.382571 228.322503 
" style="fill: none; stroke: #000000; stroke-width: 0.8; stroke-linecap: square"/>
    </g>
    <g id="text_13">
     <!-- 2.0 -->
     <g transform="translate(317.585262 244.312999) scale(0.1 -0.1)">
      <use xlink:href="#DejaVuSans-32"/>
      <use xlink:href="#DejaVuSans-2e" transform="translate(63.623047 0)"/>
      <use xlink:href="#DejaVuSans-30" transform="translate(95.410156 0)"/>
     </g>
    </g>
   </g>
   <g id="xtick_13">
    <g id="line2d_15">
     <path d="M 322.604826 209.912637 
L 326.076802 211.793482 
" style="fill: none; stroke: #000000; stroke-width: 0.8; stroke-linecap: square"/>
    </g>
    <g id="text_14">
     <!-- 2.5 -->
     <g transform="translate(327.189895 227.838335) scale(0.1 -0.1)">
      <use xlink:href="#DejaVuSans-32"/>
      <use xlink:href="#DejaVuSans-2e" transform="translate(63.623047 0)"/>
      <use xlink:href="#DejaVuSans-35" transform="translate(95.410156 0)"/>
     </g>
    </g>
   </g>
   <g id="xtick_14">
    <g id="line2d_16">
     <path d="M 332.229194 193.534746 
L 335.691433 195.400183 
" style="fill: none; stroke: #000000; stroke-width: 0.8; stroke-linecap: square"/>
    </g>
    <g id="text_15">
     <!-- 3.0 -->
     <g transform="translate(336.716086 211.498224) scale(0.1 -0.1)">
      <use xlink:href="#DejaVuSans-33"/>
      <use xlink:href="#DejaVuSans-2e" transform="translate(63.623047 0)"/>
      <use xlink:href="#DejaVuSans-30" transform="translate(95.410156 0)"/>
     </g>
    </g>
   </g>
   <g id="xtick_15">
    <g id="line2d_17">
     <path d="M 341.774896 177.290724 
L 345.227439 179.14094 
" style="fill: none; stroke: #000000; stroke-width: 0.8; stroke-linecap: square"/>
    </g>
    <g id="text_16">
     <!-- 3.5 -->
     <g transform="translate(346.164791 195.291022) scale(0.1 -0.1)">
      <use xlink:href="#DejaVuSans-33"/>
      <use xlink:href="#DejaVuSans-2e" transform="translate(63.623047 0)"/>
      <use xlink:href="#DejaVuSans-35" transform="translate(95.410156 0)"/>
     </g>
    </g>
   </g>
   <g id="text_17">
    <!-- 1e6 -->
    <g transform="translate(368.041854 202.699614) rotate(-59.57591) scale(0.1 -0.1)">
     <defs>
      <path id="DejaVuSans-65" d="M 3597 1894 
L 3597 1613 
L 953 1613 
Q 991 1019 1311 708 
Q 1631 397 2203 397 
Q 2534 397 2845 478 
Q 3156 559 3463 722 
L 3463 178 
Q 3153 47 2828 -22 
Q 2503 -91 2169 -91 
Q 1331 -91 842 396 
Q 353 884 353 1716 
Q 353 2575 817 3079 
Q 1281 3584 2069 3584 
Q 2775 3584 3186 3129 
Q 3597 2675 3597 1894 
z
M 3022 2063 
Q 3016 2534 2758 2815 
Q 2500 3097 2075 3097 
Q 1594 3097 1305 2825 
Q 1016 2553 972 2059 
L 3022 2063 
z
" transform="scale(0.015625)"/>
      <path id="DejaVuSans-36" d="M 2113 2584 
Q 1688 2584 1439 2293 
Q 1191 2003 1191 1497 
Q 1191 994 1439 701 
Q 1688 409 2113 409 
Q 2538 409 2786 701 
Q 3034 994 3034 1497 
Q 3034 2003 2786 2293 
Q 2538 2584 2113 2584 
z
M 3366 4563 
L 3366 3988 
Q 3128 4100 2886 4159 
Q 2644 4219 2406 4219 
Q 1781 4219 1451 3797 
Q 1122 3375 1075 2522 
Q 1259 2794 1537 2939 
Q 1816 3084 2150 3084 
Q 2853 3084 3261 2657 
Q 3669 2231 3669 1497 
Q 3669 778 3244 343 
Q 2819 -91 2113 -91 
Q 1303 -91 875 529 
Q 447 1150 447 2328 
Q 447 3434 972 4092 
Q 1497 4750 2381 4750 
Q 2619 4750 2861 4703 
Q 3103 4656 3366 4563 
z
" transform="scale(0.015625)"/>
     </defs>
     <use xlink:href="#DejaVuSans-31"/>
     <use xlink:href="#DejaVuSans-65" transform="translate(63.623047 0)"/>
     <use xlink:href="#DejaVuSans-36" transform="translate(125.146484 0)"/>
    </g>
   </g>
   <g id="text_18">
    <!-- |E| -->
    <g transform="translate(329.946861 254.695096) scale(0.1 -0.1)">
     <defs>
      <path id="DejaVuSans-45" d="M 628 4666 
L 3578 4666 
L 3578 4134 
L 1259 4134 
L 1259 2753 
L 3481 2753 
L 3481 2222 
L 1259 2222 
L 1259 531 
L 3634 531 
L 3634 0 
L 628 0 
L 628 4666 
z
" transform="scale(0.015625)"/>
     </defs>
     <use xlink:href="#DejaVuSans-7c"/>
     <use xlink:href="#DejaVuSans-45" transform="translate(33.691406 0)"/>
     <use xlink:href="#DejaVuSans-7c" transform="translate(96.875 0)"/>
    </g>
   </g>
  </g>
  <g id="axis3d_3">
   <g id="line2d_18">
    <path d="M 351.211284 163.797893 
L 360.896633 117.681913 
" style="fill: none; stroke: #000000; stroke-width: 0.8; stroke-linecap: square"/>
   </g>
   <g id="xtick_16">
    <g id="line2d_19">
     <path d="M 350.559006 160.799645 
L 354.018809 162.643834 
" style="fill: none; stroke: #000000; stroke-width: 0.8; stroke-linecap: square"/>
    </g>
    <g id="text_19">
     <!-- 0.0 -->
     <g transform="translate(362.184553 164.351519) scale(0.1 -0.1)">
      <use xlink:href="#DejaVuSans-30"/>
      <use xlink:href="#DejaVuSans-2e" transform="translate(63.623047 0)"/>
      <use xlink:href="#DejaVuSans-30" transform="translate(95.410156 0)"/>
     </g>
    </g>
   </g>
   <g id="xtick_17">
    <g id="line2d_20">
     <path d="M 352.723112 150.376219 
L 356.251553 152.251473 
" style="fill: none; stroke: #000000; stroke-width: 0.8; stroke-linecap: square"/>
    </g>
    <g id="text_20">
     <!-- 0.5 -->
     <g transform="translate(364.728356 153.86005) scale(0.1 -0.1)">
      <use xlink:href="#DejaVuSans-30"/>
      <use xlink:href="#DejaVuSans-2e" transform="translate(63.623047 0)"/>
      <use xlink:href="#DejaVuSans-35" transform="translate(95.410156 0)"/>
     </g>
    </g>
   </g>
   <g id="xtick_18">
    <g id="line2d_21">
     <path d="M 354.973436 139.537519 
L 358.573293 141.444874 
" style="fill: none; stroke: #000000; stroke-width: 0.8; stroke-linecap: square"/>
    </g>
    <g id="text_21">
     <!-- 1.0 -->
     <g transform="translate(367.373397 142.951044) scale(0.1 -0.1)">
      <use xlink:href="#DejaVuSans-31"/>
      <use xlink:href="#DejaVuSans-2e" transform="translate(63.623047 0)"/>
      <use xlink:href="#DejaVuSans-30" transform="translate(95.410156 0)"/>
     </g>
    </g>
   </g>
   <g id="xtick_19">
    <g id="line2d_22">
     <path d="M 357.315236 128.258225 
L 360.98946 130.198767 
" style="fill: none; stroke: #000000; stroke-width: 0.8; stroke-linecap: square"/>
    </g>
    <g id="text_22">
     <!-- 1.5 -->
     <g transform="translate(370.125843 131.599067) scale(0.1 -0.1)">
      <use xlink:href="#DejaVuSans-31"/>
      <use xlink:href="#DejaVuSans-2e" transform="translate(63.623047 0)"/>
      <use xlink:href="#DejaVuSans-35" transform="translate(95.410156 0)"/>
     </g>
    </g>
   </g>
   <g id="text_23">
    <!-- Runtime -->
    <g transform="translate(395.721903 152.264603) rotate(-78.139039) scale(0.1 -0.1)">
     <defs>
      <path id="DejaVuSans-52" d="M 2841 2188 
Q 3044 2119 3236 1894 
Q 3428 1669 3622 1275 
L 4263 0 
L 3584 0 
L 2988 1197 
Q 2756 1666 2539 1819 
Q 2322 1972 1947 1972 
L 1259 1972 
L 1259 0 
L 628 0 
L 628 4666 
L 2053 4666 
Q 2853 4666 3247 4331 
Q 3641 3997 3641 3322 
Q 3641 2881 3436 2590 
Q 3231 2300 2841 2188 
z
M 1259 4147 
L 1259 2491 
L 2053 2491 
Q 2509 2491 2742 2702 
Q 2975 2913 2975 3322 
Q 2975 3731 2742 3939 
Q 2509 4147 2053 4147 
L 1259 4147 
z
" transform="scale(0.015625)"/>
      <path id="DejaVuSans-75" d="M 544 1381 
L 544 3500 
L 1119 3500 
L 1119 1403 
Q 1119 906 1312 657 
Q 1506 409 1894 409 
Q 2359 409 2629 706 
Q 2900 1003 2900 1516 
L 2900 3500 
L 3475 3500 
L 3475 0 
L 2900 0 
L 2900 538 
Q 2691 219 2414 64 
Q 2138 -91 1772 -91 
Q 1169 -91 856 284 
Q 544 659 544 1381 
z
M 1991 3584 
L 1991 3584 
z
" transform="scale(0.015625)"/>
      <path id="DejaVuSans-6e" d="M 3513 2113 
L 3513 0 
L 2938 0 
L 2938 2094 
Q 2938 2591 2744 2837 
Q 2550 3084 2163 3084 
Q 1697 3084 1428 2787 
Q 1159 2491 1159 1978 
L 1159 0 
L 581 0 
L 581 3500 
L 1159 3500 
L 1159 2956 
Q 1366 3272 1645 3428 
Q 1925 3584 2291 3584 
Q 2894 3584 3203 3211 
Q 3513 2838 3513 2113 
z
" transform="scale(0.015625)"/>
      <path id="DejaVuSans-74" d="M 1172 4494 
L 1172 3500 
L 2356 3500 
L 2356 3053 
L 1172 3053 
L 1172 1153 
Q 1172 725 1289 603 
Q 1406 481 1766 481 
L 2356 481 
L 2356 0 
L 1766 0 
Q 1100 0 847 248 
Q 594 497 594 1153 
L 594 3053 
L 172 3053 
L 172 3500 
L 594 3500 
L 594 4494 
L 1172 4494 
z
" transform="scale(0.015625)"/>
      <path id="DejaVuSans-69" d="M 603 3500 
L 1178 3500 
L 1178 0 
L 603 0 
L 603 3500 
z
M 603 4863 
L 1178 4863 
L 1178 4134 
L 603 4134 
L 603 4863 
z
" transform="scale(0.015625)"/>
      <path id="DejaVuSans-6d" d="M 3328 2828 
Q 3544 3216 3844 3400 
Q 4144 3584 4550 3584 
Q 5097 3584 5394 3201 
Q 5691 2819 5691 2113 
L 5691 0 
L 5113 0 
L 5113 2094 
Q 5113 2597 4934 2840 
Q 4756 3084 4391 3084 
Q 3944 3084 3684 2787 
Q 3425 2491 3425 1978 
L 3425 0 
L 2847 0 
L 2847 2094 
Q 2847 2600 2669 2842 
Q 2491 3084 2119 3084 
Q 1678 3084 1418 2786 
Q 1159 2488 1159 1978 
L 1159 0 
L 581 0 
L 581 3500 
L 1159 3500 
L 1159 2956 
Q 1356 3278 1631 3431 
Q 1906 3584 2284 3584 
Q 2666 3584 2933 3390 
Q 3200 3197 3328 2828 
z
" transform="scale(0.015625)"/>
     </defs>
     <use xlink:href="#DejaVuSans-52"/>
     <use xlink:href="#DejaVuSans-75" transform="translate(64.982422 0)"/>
     <use xlink:href="#DejaVuSans-6e" transform="translate(128.361328 0)"/>
     <use xlink:href="#DejaVuSans-74" transform="translate(191.740234 0)"/>
     <use xlink:href="#DejaVuSans-69" transform="translate(230.949219 0)"/>
     <use xlink:href="#DejaVuSans-6d" transform="translate(258.732422 0)"/>
     <use xlink:href="#DejaVuSans-65" transform="translate(356.144531 0)"/>
    </g>
   </g>
  </g>
  <g id="axes_1">
   <g id="line2d_23">
    <path d="M 140.638051 214.362976 
L 140.638051 214.362976 
L 140.638051 214.362976 
L 140.638051 214.362976 
L 140.638051 214.362976 
L 140.638051 214.362976 
L 140.638051 214.362976 
L 140.638051 214.362976 
L 140.638051 214.362976 
L 140.638051 214.362976 
L 165.846804 217.114552 
L 165.846804 217.114552 
L 165.846804 217.114552 
L 165.846804 217.114552 
L 165.846804 217.114552 
L 165.846804 217.114552 
L 165.846804 217.114552 
L 165.846804 217.114552 
L 165.846804 217.114552 
L 165.846804 217.114552 
L 194.263735 214.011489 
L 194.263735 214.011489 
L 194.263735 214.011489 
L 194.263735 214.011489 
L 194.263735 214.011489 
L 194.263735 214.011489 
L 194.263735 214.011489 
L 194.263735 214.011489 
L 194.263735 214.011489 
L 194.263735 214.011489 
L 225.976597 204.973557 
L 225.976597 204.973557 
L 225.976597 204.973557 
L 225.976597 204.973557 
L 225.976597 204.973557 
L 225.976597 204.973557 
L 225.976597 204.973557 
L 225.976597 204.973557 
L 225.976597 204.973557 
L 225.976597 204.973557 
L 261.085611 189.899502 
L 261.085611 189.899502 
L 261.085611 189.899502 
L 261.085611 189.899502 
L 261.085611 189.899502 
L 261.085611 189.899502 
L 261.085611 189.899502 
L 261.085611 189.899502 
L 261.085611 189.899502 
L 261.085611 189.899502 
L 299.704324 168.665964 
L 299.704324 168.665964 
L 299.704324 168.665964 
L 299.704324 168.665964 
L 299.704324 168.665964 
L 299.704324 168.665964 
L 299.704324 168.665964 
L 299.704324 168.665964 
L 299.704324 168.665964 
L 299.704324 168.665964 
L 341.960606 141.126197 
L 341.960606 141.126197 
L 341.960606 141.126197 
L 341.960606 141.126197 
L 341.960606 141.126197 
L 341.960606 141.126197 
L 341.960606 141.126197 
L 341.960606 141.126197 
L 341.960606 141.126197 
L 341.960606 141.126197 
" clip-path="url(#p0bfb9ff7ca)" style="fill: none; stroke-dasharray: 2,3.3; stroke-dashoffset: 0; stroke: #000000; stroke-opacity: 0.5; stroke-width: 2"/>
   </g>
   <g id="Path3DCollection_1">
    <defs>
     <path id="C0_0_d926581bb6" d="M 0 2.236068 
C 0.593012 2.236068 1.161816 2.000462 1.581139 1.581139 
C 2.000462 1.161816 2.236068 0.593012 2.236068 -0 
C 2.236068 -0.593012 2.000462 -1.161816 1.581139 -1.581139 
C 1.161816 -2.000462 0.593012 -2.236068 0 -2.236068 
C -0.593012 -2.236068 -1.161816 -2.000462 -1.581139 -1.581139 
C -2.000462 -1.161816 -2.236068 -0.593012 -2.236068 0 
C -2.236068 0.593012 -2.000462 1.161816 -1.581139 1.581139 
C -1.161816 2.000462 -0.593012 2.236068 0 2.236068 
z
"/>
    </defs>
    <g clip-path="url(#p0bfb9ff7ca)">
     <use xlink:href="#C0_0_d926581bb6" x="140.664253" y="214.489894" style="fill: #1f77b4; fill-opacity: 0.3; stroke: #1f77b4; stroke-opacity: 0.3"/>
    </g>
    <g clip-path="url(#p0bfb9ff7ca)">
     <use xlink:href="#C0_0_d926581bb6" x="140.663498" y="214.486238" style="fill: #1f77b4; fill-opacity: 0.300078; stroke: #1f77b4; stroke-opacity: 0.300078"/>
    </g>
    <g clip-path="url(#p0bfb9ff7ca)">
     <use xlink:href="#C0_0_d926581bb6" x="140.66286" y="214.483147" style="fill: #1f77b4; fill-opacity: 0.300145; stroke: #1f77b4; stroke-opacity: 0.300145"/>
    </g>
    <g clip-path="url(#p0bfb9ff7ca)">
     <use xlink:href="#C0_0_d926581bb6" x="140.662275" y="214.480314" style="fill: #1f77b4; fill-opacity: 0.300205; stroke: #1f77b4; stroke-opacity: 0.300205"/>
    </g>
    <g clip-path="url(#p0bfb9ff7ca)">
     <use xlink:href="#C0_0_d926581bb6" x="140.662018" y="214.479069" style="fill: #1f77b4; fill-opacity: 0.300232; stroke: #1f77b4; stroke-opacity: 0.300232"/>
    </g>
    <g clip-path="url(#p0bfb9ff7ca)">
     <use xlink:href="#C0_0_d926581bb6" x="140.661191" y="214.475066" style="fill: #1f77b4; fill-opacity: 0.300318; stroke: #1f77b4; stroke-opacity: 0.300318"/>
    </g>
    <g clip-path="url(#p0bfb9ff7ca)">
     <use xlink:href="#C0_0_d926581bb6" x="140.658562" y="214.462332" style="fill: #1f77b4; fill-opacity: 0.300591; stroke: #1f77b4; stroke-opacity: 0.300591"/>
    </g>
    <g clip-path="url(#p0bfb9ff7ca)">
     <use xlink:href="#C0_0_d926581bb6" x="140.651593" y="214.428574" style="fill: #1f77b4; fill-opacity: 0.301315; stroke: #1f77b4; stroke-opacity: 0.301315"/>
    </g>
    <g clip-path="url(#p0bfb9ff7ca)">
     <use xlink:href="#C0_0_d926581bb6" x="140.650097" y="214.421327" style="fill: #1f77b4; fill-opacity: 0.30147; stroke: #1f77b4; stroke-opacity: 0.30147"/>
    </g>
    <g clip-path="url(#p0bfb9ff7ca)">
     <use xlink:href="#C0_0_d926581bb6" x="140.634589" y="214.346207" style="fill: #1f77b4; fill-opacity: 0.303081; stroke: #1f77b4; stroke-opacity: 0.303081"/>
    </g>
    <g clip-path="url(#p0bfb9ff7ca)">
     <use xlink:href="#C0_0_d926581bb6" x="165.905394" y="217.492978" style="fill: #1f77b4; fill-opacity: 0.332608; stroke: #1f77b4; stroke-opacity: 0.332608"/>
    </g>
    <g clip-path="url(#p0bfb9ff7ca)">
     <use xlink:href="#C0_0_d926581bb6" x="165.901912" y="217.470485" style="fill: #1f77b4; fill-opacity: 0.333094; stroke: #1f77b4; stroke-opacity: 0.333094"/>
    </g>
    <g clip-path="url(#p0bfb9ff7ca)">
     <use xlink:href="#C0_0_d926581bb6" x="165.899582" y="217.455435" style="fill: #1f77b4; fill-opacity: 0.33342; stroke: #1f77b4; stroke-opacity: 0.33342"/>
    </g>
    <g clip-path="url(#p0bfb9ff7ca)">
     <use xlink:href="#C0_0_d926581bb6" x="165.878902" y="217.321867" style="fill: #1f77b4; fill-opacity: 0.336312; stroke: #1f77b4; stroke-opacity: 0.336312"/>
    </g>
    <g clip-path="url(#p0bfb9ff7ca)">
     <use xlink:href="#C0_0_d926581bb6" x="165.878752" y="217.3209" style="fill: #1f77b4; fill-opacity: 0.336333; stroke: #1f77b4; stroke-opacity: 0.336333"/>
    </g>
    <g clip-path="url(#p0bfb9ff7ca)">
     <use xlink:href="#C0_0_d926581bb6" x="165.877502" y="217.312829" style="fill: #1f77b4; fill-opacity: 0.336508; stroke: #1f77b4; stroke-opacity: 0.336508"/>
    </g>
    <g clip-path="url(#p0bfb9ff7ca)">
     <use xlink:href="#C0_0_d926581bb6" x="165.876862" y="217.308694" style="fill: #1f77b4; fill-opacity: 0.336597; stroke: #1f77b4; stroke-opacity: 0.336597"/>
    </g>
    <g clip-path="url(#p0bfb9ff7ca)">
     <use xlink:href="#C0_0_d926581bb6" x="165.872063" y="217.277694" style="fill: #1f77b4; fill-opacity: 0.337268; stroke: #1f77b4; stroke-opacity: 0.337268"/>
    </g>
    <g clip-path="url(#p0bfb9ff7ca)">
     <use xlink:href="#C0_0_d926581bb6" x="165.8708" y="217.269538" style="fill: #1f77b4; fill-opacity: 0.337445; stroke: #1f77b4; stroke-opacity: 0.337445"/>
    </g>
    <g clip-path="url(#p0bfb9ff7ca)">
     <use xlink:href="#C0_0_d926581bb6" x="165.854318" y="217.163083" style="fill: #1f77b4; fill-opacity: 0.339749; stroke: #1f77b4; stroke-opacity: 0.339749"/>
    </g>
    <g clip-path="url(#p0bfb9ff7ca)">
     <use xlink:href="#C0_0_d926581bb6" x="194.335559" y="214.77006" style="fill: #1f77b4; fill-opacity: 0.368415; stroke: #1f77b4; stroke-opacity: 0.368415"/>
    </g>
    <g clip-path="url(#p0bfb9ff7ca)">
     <use xlink:href="#C0_0_d926581bb6" x="194.326553" y="214.674947" style="fill: #1f77b4; fill-opacity: 0.37047; stroke: #1f77b4; stroke-opacity: 0.37047"/>
    </g>
    <g clip-path="url(#p0bfb9ff7ca)">
     <use xlink:href="#C0_0_d926581bb6" x="194.322646" y="214.633677" style="fill: #1f77b4; fill-opacity: 0.371361; stroke: #1f77b4; stroke-opacity: 0.371361"/>
    </g>
    <g clip-path="url(#p0bfb9ff7ca)">
     <use xlink:href="#C0_0_d926581bb6" x="194.316973" y="214.573759" style="fill: #1f77b4; fill-opacity: 0.372655; stroke: #1f77b4; stroke-opacity: 0.372655"/>
    </g>
    <g clip-path="url(#p0bfb9ff7ca)">
     <use xlink:href="#C0_0_d926581bb6" x="194.316304" y="214.566697" style="fill: #1f77b4; fill-opacity: 0.372808; stroke: #1f77b4; stroke-opacity: 0.372808"/>
    </g>
    <g clip-path="url(#p0bfb9ff7ca)">
     <use xlink:href="#C0_0_d926581bb6" x="194.310468" y="214.50506" style="fill: #1f77b4; fill-opacity: 0.374139; stroke: #1f77b4; stroke-opacity: 0.374139"/>
    </g>
    <g clip-path="url(#p0bfb9ff7ca)">
     <use xlink:href="#C0_0_d926581bb6" x="194.301884" y="214.414395" style="fill: #1f77b4; fill-opacity: 0.376098; stroke: #1f77b4; stroke-opacity: 0.376098"/>
    </g>
    <g clip-path="url(#p0bfb9ff7ca)">
     <use xlink:href="#C0_0_d926581bb6" x="194.299194" y="214.385992" style="fill: #1f77b4; fill-opacity: 0.376711; stroke: #1f77b4; stroke-opacity: 0.376711"/>
    </g>
    <g clip-path="url(#p0bfb9ff7ca)">
     <use xlink:href="#C0_0_d926581bb6" x="194.288964" y="214.277944" style="fill: #1f77b4; fill-opacity: 0.379045; stroke: #1f77b4; stroke-opacity: 0.379045"/>
    </g>
    <g clip-path="url(#p0bfb9ff7ca)">
     <use xlink:href="#C0_0_d926581bb6" x="194.284205" y="214.227682" style="fill: #1f77b4; fill-opacity: 0.380131; stroke: #1f77b4; stroke-opacity: 0.380131"/>
    </g>
    <g clip-path="url(#p0bfb9ff7ca)">
     <use xlink:href="#C0_0_d926581bb6" x="226.006012" y="206.018499" style="fill: #1f77b4; fill-opacity: 0.412611; stroke: #1f77b4; stroke-opacity: 0.412611"/>
    </g>
    <g clip-path="url(#p0bfb9ff7ca)">
     <use xlink:href="#C0_0_d926581bb6" x="226.004306" y="205.957885" style="fill: #1f77b4; fill-opacity: 0.413902; stroke: #1f77b4; stroke-opacity: 0.413902"/>
    </g>
    <g clip-path="url(#p0bfb9ff7ca)">
     <use xlink:href="#C0_0_d926581bb6" x="226.00264" y="205.89872" style="fill: #1f77b4; fill-opacity: 0.415163; stroke: #1f77b4; stroke-opacity: 0.415163"/>
    </g>
    <g clip-path="url(#p0bfb9ff7ca)">
     <use xlink:href="#C0_0_d926581bb6" x="225.997768" y="205.725617" style="fill: #1f77b4; fill-opacity: 0.418851; stroke: #1f77b4; stroke-opacity: 0.418851"/>
    </g>
    <g clip-path="url(#p0bfb9ff7ca)">
     <use xlink:href="#C0_0_d926581bb6" x="225.997438" y="205.713894" style="fill: #1f77b4; fill-opacity: 0.4191; stroke: #1f77b4; stroke-opacity: 0.4191"/>
    </g>
    <g clip-path="url(#p0bfb9ff7ca)">
     <use xlink:href="#C0_0_d926581bb6" x="225.995861" y="205.657901" style="fill: #1f77b4; fill-opacity: 0.420293; stroke: #1f77b4; stroke-opacity: 0.420293"/>
    </g>
    <g clip-path="url(#p0bfb9ff7ca)">
     <use xlink:href="#C0_0_d926581bb6" x="225.995652" y="205.650446" style="fill: #1f77b4; fill-opacity: 0.420452; stroke: #1f77b4; stroke-opacity: 0.420452"/>
    </g>
    <g clip-path="url(#p0bfb9ff7ca)">
     <use xlink:href="#C0_0_d926581bb6" x="225.991309" y="205.496178" style="fill: #1f77b4; fill-opacity: 0.423739; stroke: #1f77b4; stroke-opacity: 0.423739"/>
    </g>
    <g clip-path="url(#p0bfb9ff7ca)">
     <use xlink:href="#C0_0_d926581bb6" x="225.990185" y="205.456242" style="fill: #1f77b4; fill-opacity: 0.424589; stroke: #1f77b4; stroke-opacity: 0.424589"/>
    </g>
    <g clip-path="url(#p0bfb9ff7ca)">
     <use xlink:href="#C0_0_d926581bb6" x="225.981175" y="205.136158" style="fill: #1f77b4; fill-opacity: 0.431409; stroke: #1f77b4; stroke-opacity: 0.431409"/>
    </g>
    <g clip-path="url(#p0bfb9ff7ca)">
     <use xlink:href="#C0_0_d926581bb6" x="261.051656" y="190.702765" style="fill: #1f77b4; fill-opacity: 0.474495; stroke: #1f77b4; stroke-opacity: 0.474495"/>
    </g>
    <g clip-path="url(#p0bfb9ff7ca)">
     <use xlink:href="#C0_0_d926581bb6" x="261.073352" y="190.189501" style="fill: #1f77b4; fill-opacity: 0.48516; stroke: #1f77b4; stroke-opacity: 0.48516"/>
    </g>
    <g clip-path="url(#p0bfb9ff7ca)">
     <use xlink:href="#C0_0_d926581bb6" x="261.0742" y="190.169437" style="fill: #1f77b4; fill-opacity: 0.485577; stroke: #1f77b4; stroke-opacity: 0.485577"/>
    </g>
    <g clip-path="url(#p0bfb9ff7ca)">
     <use xlink:href="#C0_0_d926581bb6" x="261.075039" y="190.149599" style="fill: #1f77b4; fill-opacity: 0.485989; stroke: #1f77b4; stroke-opacity: 0.485989"/>
    </g>
    <g clip-path="url(#p0bfb9ff7ca)">
     <use xlink:href="#C0_0_d926581bb6" x="261.082339" y="189.976898" style="fill: #1f77b4; fill-opacity: 0.489578; stroke: #1f77b4; stroke-opacity: 0.489578"/>
    </g>
    <g clip-path="url(#p0bfb9ff7ca)">
     <use xlink:href="#C0_0_d926581bb6" x="261.083083" y="189.959307" style="fill: #1f77b4; fill-opacity: 0.489943; stroke: #1f77b4; stroke-opacity: 0.489943"/>
    </g>
    <g clip-path="url(#p0bfb9ff7ca)">
     <use xlink:href="#C0_0_d926581bb6" x="261.085336" y="189.906002" style="fill: #1f77b4; fill-opacity: 0.491051; stroke: #1f77b4; stroke-opacity: 0.491051"/>
    </g>
    <g clip-path="url(#p0bfb9ff7ca)">
     <use xlink:href="#C0_0_d926581bb6" x="261.094592" y="189.687044" style="fill: #1f77b4; fill-opacity: 0.495601; stroke: #1f77b4; stroke-opacity: 0.495601"/>
    </g>
    <g clip-path="url(#p0bfb9ff7ca)">
     <use xlink:href="#C0_0_d926581bb6" x="261.102539" y="189.49904" style="fill: #1f77b4; fill-opacity: 0.499507; stroke: #1f77b4; stroke-opacity: 0.499507"/>
    </g>
    <g clip-path="url(#p0bfb9ff7ca)">
     <use xlink:href="#C0_0_d926581bb6" x="261.129193" y="188.868505" style="fill: #1f77b4; fill-opacity: 0.51261; stroke: #1f77b4; stroke-opacity: 0.51261"/>
    </g>
    <g clip-path="url(#p0bfb9ff7ca)">
     <use xlink:href="#C0_0_d926581bb6" x="299.6625" y="169.032809" style="fill: #1f77b4; fill-opacity: 0.546577; stroke: #1f77b4; stroke-opacity: 0.546577"/>
    </g>
    <g clip-path="url(#p0bfb9ff7ca)">
     <use xlink:href="#C0_0_d926581bb6" x="299.704457" y="168.664793" style="fill: #1f77b4; fill-opacity: 0.55396; stroke: #1f77b4; stroke-opacity: 0.55396"/>
    </g>
    <g clip-path="url(#p0bfb9ff7ca)">
     <use xlink:href="#C0_0_d926581bb6" x="299.841861" y="167.459602" style="fill: #1f77b4; fill-opacity: 0.578135; stroke: #1f77b4; stroke-opacity: 0.578135"/>
    </g>
    <g clip-path="url(#p0bfb9ff7ca)">
     <use xlink:href="#C0_0_d926581bb6" x="299.942877" y="166.573569" style="fill: #1f77b4; fill-opacity: 0.595909; stroke: #1f77b4; stroke-opacity: 0.595909"/>
    </g>
    <g clip-path="url(#p0bfb9ff7ca)">
     <use xlink:href="#C0_0_d926581bb6" x="300.077268" y="165.394807" style="fill: #1f77b4; fill-opacity: 0.619554; stroke: #1f77b4; stroke-opacity: 0.619554"/>
    </g>
    <g clip-path="url(#p0bfb9ff7ca)">
     <use xlink:href="#C0_0_d926581bb6" x="342.131153" y="140.202823" style="fill: #1f77b4; fill-opacity: 0.641061; stroke: #1f77b4; stroke-opacity: 0.641061"/>
    </g>
    <g clip-path="url(#p0bfb9ff7ca)">
     <use xlink:href="#C0_0_d926581bb6" x="342.147933" y="140.11197" style="fill: #1f77b4; fill-opacity: 0.642804; stroke: #1f77b4; stroke-opacity: 0.642804"/>
    </g>
    <g clip-path="url(#p0bfb9ff7ca)">
     <use xlink:href="#C0_0_d926581bb6" x="300.211663" y="164.216005" style="fill: #1f77b4; fill-opacity: 0.643201; stroke: #1f77b4; stroke-opacity: 0.643201"/>
    </g>
    <g clip-path="url(#p0bfb9ff7ca)">
     <use xlink:href="#C0_0_d926581bb6" x="342.204474" y="139.805845" style="fill: #1f77b4; fill-opacity: 0.648677; stroke: #1f77b4; stroke-opacity: 0.648677"/>
    </g>
    <g clip-path="url(#p0bfb9ff7ca)">
     <use xlink:href="#C0_0_d926581bb6" x="342.260614" y="139.501893" style="fill: #1f77b4; fill-opacity: 0.654509; stroke: #1f77b4; stroke-opacity: 0.654509"/>
    </g>
    <g clip-path="url(#p0bfb9ff7ca)">
     <use xlink:href="#C0_0_d926581bb6" x="342.276072" y="139.418201" style="fill: #1f77b4; fill-opacity: 0.656115; stroke: #1f77b4; stroke-opacity: 0.656115"/>
    </g>
    <g clip-path="url(#p0bfb9ff7ca)">
     <use xlink:href="#C0_0_d926581bb6" x="342.290594" y="139.339578" style="fill: #1f77b4; fill-opacity: 0.657623; stroke: #1f77b4; stroke-opacity: 0.657623"/>
    </g>
    <g clip-path="url(#p0bfb9ff7ca)">
     <use xlink:href="#C0_0_d926581bb6" x="342.337044" y="139.088083" style="fill: #1f77b4; fill-opacity: 0.662449; stroke: #1f77b4; stroke-opacity: 0.662449"/>
    </g>
    <g clip-path="url(#p0bfb9ff7ca)">
     <use xlink:href="#C0_0_d926581bb6" x="342.354622" y="138.992916" style="fill: #1f77b4; fill-opacity: 0.664275; stroke: #1f77b4; stroke-opacity: 0.664275"/>
    </g>
    <g clip-path="url(#p0bfb9ff7ca)">
     <use xlink:href="#C0_0_d926581bb6" x="342.483832" y="138.293345" style="fill: #1f77b4; fill-opacity: 0.677697; stroke: #1f77b4; stroke-opacity: 0.677697"/>
    </g>
    <g clip-path="url(#p0bfb9ff7ca)">
     <use xlink:href="#C0_0_d926581bb6" x="342.498933" y="138.211586" style="fill: #1f77b4; fill-opacity: 0.679266; stroke: #1f77b4; stroke-opacity: 0.679266"/>
    </g>
    <g clip-path="url(#p0bfb9ff7ca)">
     <use xlink:href="#C0_0_d926581bb6" x="301.604813" y="151.996435" style="fill: #1f77b4; fill-opacity: 0.888321; stroke: #1f77b4; stroke-opacity: 0.888321"/>
    </g>
    <g clip-path="url(#p0bfb9ff7ca)">
     <use xlink:href="#C0_0_d926581bb6" x="301.847815" y="149.86502" style="fill: #1f77b4; fill-opacity: 0.931076; stroke: #1f77b4; stroke-opacity: 0.931076"/>
    </g>
    <g clip-path="url(#p0bfb9ff7ca)">
     <use xlink:href="#C0_0_d926581bb6" x="302.111523" y="147.551994" style="fill: #1f77b4; fill-opacity: 0.977475; stroke: #1f77b4; stroke-opacity: 0.977475"/>
    </g>
    <g clip-path="url(#p0bfb9ff7ca)">
     <use xlink:href="#C0_0_d926581bb6" x="302.239547" y="146.429072" style="fill: #1f77b4; stroke: #1f77b4"/>
    </g>
   </g>
   <g id="text_24">
    <!-- Time for Dijkstras on Graph -->
    <g transform="translate(153.549375 35.472) scale(0.12 -0.12)">
     <defs>
      <path id="DejaVuSans-54" d="M -19 4666 
L 3928 4666 
L 3928 4134 
L 2272 4134 
L 2272 0 
L 1638 0 
L 1638 4134 
L -19 4134 
L -19 4666 
z
" transform="scale(0.015625)"/>
      <path id="DejaVuSans-20" transform="scale(0.015625)"/>
      <path id="DejaVuSans-66" d="M 2375 4863 
L 2375 4384 
L 1825 4384 
Q 1516 4384 1395 4259 
Q 1275 4134 1275 3809 
L 1275 3500 
L 2222 3500 
L 2222 3053 
L 1275 3053 
L 1275 0 
L 697 0 
L 697 3053 
L 147 3053 
L 147 3500 
L 697 3500 
L 697 3744 
Q 697 4328 969 4595 
Q 1241 4863 1831 4863 
L 2375 4863 
z
" transform="scale(0.015625)"/>
      <path id="DejaVuSans-6f" d="M 1959 3097 
Q 1497 3097 1228 2736 
Q 959 2375 959 1747 
Q 959 1119 1226 758 
Q 1494 397 1959 397 
Q 2419 397 2687 759 
Q 2956 1122 2956 1747 
Q 2956 2369 2687 2733 
Q 2419 3097 1959 3097 
z
M 1959 3584 
Q 2709 3584 3137 3096 
Q 3566 2609 3566 1747 
Q 3566 888 3137 398 
Q 2709 -91 1959 -91 
Q 1206 -91 779 398 
Q 353 888 353 1747 
Q 353 2609 779 3096 
Q 1206 3584 1959 3584 
z
" transform="scale(0.015625)"/>
      <path id="DejaVuSans-72" d="M 2631 2963 
Q 2534 3019 2420 3045 
Q 2306 3072 2169 3072 
Q 1681 3072 1420 2755 
Q 1159 2438 1159 1844 
L 1159 0 
L 581 0 
L 581 3500 
L 1159 3500 
L 1159 2956 
Q 1341 3275 1631 3429 
Q 1922 3584 2338 3584 
Q 2397 3584 2469 3576 
Q 2541 3569 2628 3553 
L 2631 2963 
z
" transform="scale(0.015625)"/>
      <path id="DejaVuSans-44" d="M 1259 4147 
L 1259 519 
L 2022 519 
Q 2988 519 3436 956 
Q 3884 1394 3884 2338 
Q 3884 3275 3436 3711 
Q 2988 4147 2022 4147 
L 1259 4147 
z
M 628 4666 
L 1925 4666 
Q 3281 4666 3915 4102 
Q 4550 3538 4550 2338 
Q 4550 1131 3912 565 
Q 3275 0 1925 0 
L 628 0 
L 628 4666 
z
" transform="scale(0.015625)"/>
      <path id="DejaVuSans-6a" d="M 603 3500 
L 1178 3500 
L 1178 -63 
Q 1178 -731 923 -1031 
Q 669 -1331 103 -1331 
L -116 -1331 
L -116 -844 
L 38 -844 
Q 366 -844 484 -692 
Q 603 -541 603 -63 
L 603 3500 
z
M 603 4863 
L 1178 4863 
L 1178 4134 
L 603 4134 
L 603 4863 
z
" transform="scale(0.015625)"/>
      <path id="DejaVuSans-6b" d="M 581 4863 
L 1159 4863 
L 1159 1991 
L 2875 3500 
L 3609 3500 
L 1753 1863 
L 3688 0 
L 2938 0 
L 1159 1709 
L 1159 0 
L 581 0 
L 581 4863 
z
" transform="scale(0.015625)"/>
      <path id="DejaVuSans-73" d="M 2834 3397 
L 2834 2853 
Q 2591 2978 2328 3040 
Q 2066 3103 1784 3103 
Q 1356 3103 1142 2972 
Q 928 2841 928 2578 
Q 928 2378 1081 2264 
Q 1234 2150 1697 2047 
L 1894 2003 
Q 2506 1872 2764 1633 
Q 3022 1394 3022 966 
Q 3022 478 2636 193 
Q 2250 -91 1575 -91 
Q 1294 -91 989 -36 
Q 684 19 347 128 
L 347 722 
Q 666 556 975 473 
Q 1284 391 1588 391 
Q 1994 391 2212 530 
Q 2431 669 2431 922 
Q 2431 1156 2273 1281 
Q 2116 1406 1581 1522 
L 1381 1569 
Q 847 1681 609 1914 
Q 372 2147 372 2553 
Q 372 3047 722 3315 
Q 1072 3584 1716 3584 
Q 2034 3584 2315 3537 
Q 2597 3491 2834 3397 
z
" transform="scale(0.015625)"/>
      <path id="DejaVuSans-61" d="M 2194 1759 
Q 1497 1759 1228 1600 
Q 959 1441 959 1056 
Q 959 750 1161 570 
Q 1363 391 1709 391 
Q 2188 391 2477 730 
Q 2766 1069 2766 1631 
L 2766 1759 
L 2194 1759 
z
M 3341 1997 
L 3341 0 
L 2766 0 
L 2766 531 
Q 2569 213 2275 61 
Q 1981 -91 1556 -91 
Q 1019 -91 701 211 
Q 384 513 384 1019 
Q 384 1609 779 1909 
Q 1175 2209 1959 2209 
L 2766 2209 
L 2766 2266 
Q 2766 2663 2505 2880 
Q 2244 3097 1772 3097 
Q 1472 3097 1187 3025 
Q 903 2953 641 2809 
L 641 3341 
Q 956 3463 1253 3523 
Q 1550 3584 1831 3584 
Q 2591 3584 2966 3190 
Q 3341 2797 3341 1997 
z
" transform="scale(0.015625)"/>
      <path id="DejaVuSans-47" d="M 3809 666 
L 3809 1919 
L 2778 1919 
L 2778 2438 
L 4434 2438 
L 4434 434 
Q 4069 175 3628 42 
Q 3188 -91 2688 -91 
Q 1594 -91 976 548 
Q 359 1188 359 2328 
Q 359 3472 976 4111 
Q 1594 4750 2688 4750 
Q 3144 4750 3555 4637 
Q 3966 4525 4313 4306 
L 4313 3634 
Q 3963 3931 3569 4081 
Q 3175 4231 2741 4231 
Q 1884 4231 1454 3753 
Q 1025 3275 1025 2328 
Q 1025 1384 1454 906 
Q 1884 428 2741 428 
Q 3075 428 3337 486 
Q 3600 544 3809 666 
z
" transform="scale(0.015625)"/>
      <path id="DejaVuSans-70" d="M 1159 525 
L 1159 -1331 
L 581 -1331 
L 581 3500 
L 1159 3500 
L 1159 2969 
Q 1341 3281 1617 3432 
Q 1894 3584 2278 3584 
Q 2916 3584 3314 3078 
Q 3713 2572 3713 1747 
Q 3713 922 3314 415 
Q 2916 -91 2278 -91 
Q 1894 -91 1617 61 
Q 1341 213 1159 525 
z
M 3116 1747 
Q 3116 2381 2855 2742 
Q 2594 3103 2138 3103 
Q 1681 3103 1420 2742 
Q 1159 2381 1159 1747 
Q 1159 1113 1420 752 
Q 1681 391 2138 391 
Q 2594 391 2855 752 
Q 3116 1113 3116 1747 
z
" transform="scale(0.015625)"/>
      <path id="DejaVuSans-68" d="M 3513 2113 
L 3513 0 
L 2938 0 
L 2938 2094 
Q 2938 2591 2744 2837 
Q 2550 3084 2163 3084 
Q 1697 3084 1428 2787 
Q 1159 2491 1159 1978 
L 1159 0 
L 581 0 
L 581 4863 
L 1159 4863 
L 1159 2956 
Q 1366 3272 1645 3428 
Q 1925 3584 2291 3584 
Q 2894 3584 3203 3211 
Q 3513 2838 3513 2113 
z
" transform="scale(0.015625)"/>
     </defs>
     <use xlink:href="#DejaVuSans-54"/>
     <use xlink:href="#DejaVuSans-69" transform="translate(57.958984 0)"/>
     <use xlink:href="#DejaVuSans-6d" transform="translate(85.742188 0)"/>
     <use xlink:href="#DejaVuSans-65" transform="translate(183.154297 0)"/>
     <use xlink:href="#DejaVuSans-20" transform="translate(244.677734 0)"/>
     <use xlink:href="#DejaVuSans-66" transform="translate(276.464844 0)"/>
     <use xlink:href="#DejaVuSans-6f" transform="translate(311.669922 0)"/>
     <use xlink:href="#DejaVuSans-72" transform="translate(372.851562 0)"/>
     <use xlink:href="#DejaVuSans-20" transform="translate(413.964844 0)"/>
     <use xlink:href="#DejaVuSans-44" transform="translate(445.751953 0)"/>
     <use xlink:href="#DejaVuSans-69" transform="translate(522.753906 0)"/>
     <use xlink:href="#DejaVuSans-6a" transform="translate(550.537109 0)"/>
     <use xlink:href="#DejaVuSans-6b" transform="translate(578.320312 0)"/>
     <use xlink:href="#DejaVuSans-73" transform="translate(636.230469 0)"/>
     <use xlink:href="#DejaVuSans-74" transform="translate(688.330078 0)"/>
     <use xlink:href="#DejaVuSans-72" transform="translate(727.539062 0)"/>
     <use xlink:href="#DejaVuSans-61" transform="translate(768.652344 0)"/>
     <use xlink:href="#DejaVuSans-73" transform="translate(829.931641 0)"/>
     <use xlink:href="#DejaVuSans-20" transform="translate(882.03125 0)"/>
     <use xlink:href="#DejaVuSans-6f" transform="translate(913.818359 0)"/>
     <use xlink:href="#DejaVuSans-6e" transform="translate(975 0)"/>
     <use xlink:href="#DejaVuSans-20" transform="translate(1038.378906 0)"/>
     <use xlink:href="#DejaVuSans-47" transform="translate(1070.166016 0)"/>
     <use xlink:href="#DejaVuSans-72" transform="translate(1147.65625 0)"/>
     <use xlink:href="#DejaVuSans-61" transform="translate(1188.769531 0)"/>
     <use xlink:href="#DejaVuSans-70" transform="translate(1250.048828 0)"/>
     <use xlink:href="#DejaVuSans-68" transform="translate(1313.525391 0)"/>
    </g>
   </g>
   <g id="legend_1">
    <g id="patch_6">
     <path d="M 212.866 78.82825 
L 362.216 78.82825 
Q 364.216 78.82825 364.216 76.82825 
L 364.216 48.472 
Q 364.216 46.472 362.216 46.472 
L 212.866 46.472 
Q 210.866 46.472 210.866 48.472 
L 210.866 76.82825 
Q 210.866 78.82825 212.866 78.82825 
z
" style="fill: #ffffff; opacity: 0.8; stroke: #cccccc; stroke-linejoin: miter"/>
    </g>
    <g id="Path3DCollection_2">
     <defs>
      <path id="m4e949f0e77" d="M 0 2.236068 
C 0.593012 2.236068 1.161816 2.000462 1.581139 1.581139 
C 2.000462 1.161816 2.236068 0.593012 2.236068 0 
C 2.236068 -0.593012 2.000462 -1.161816 1.581139 -1.581139 
C 1.161816 -2.000462 0.593012 -2.236068 0 -2.236068 
C -0.593012 -2.236068 -1.161816 -2.000462 -1.581139 -1.581139 
C -2.000462 -1.161816 -2.236068 -0.593012 -2.236068 0 
C -2.236068 0.593012 -2.000462 1.161816 -1.581139 1.581139 
C -1.161816 2.000462 -0.593012 2.236068 0 2.236068 
z
" style="stroke: #1f77b4"/>
     </defs>
     <g>
      <use xlink:href="#m4e949f0e77" x="224.866" y="55.445437" style="fill: #1f77b4; stroke: #1f77b4"/>
     </g>
    </g>
    <g id="text_25">
     <!-- Observed -->
     <g transform="translate(242.866 58.070437) scale(0.1 -0.1)">
      <defs>
       <path id="DejaVuSans-4f" d="M 2522 4238 
Q 1834 4238 1429 3725 
Q 1025 3213 1025 2328 
Q 1025 1447 1429 934 
Q 1834 422 2522 422 
Q 3209 422 3611 934 
Q 4013 1447 4013 2328 
Q 4013 3213 3611 3725 
Q 3209 4238 2522 4238 
z
M 2522 4750 
Q 3503 4750 4090 4092 
Q 4678 3434 4678 2328 
Q 4678 1225 4090 567 
Q 3503 -91 2522 -91 
Q 1538 -91 948 565 
Q 359 1222 359 2328 
Q 359 3434 948 4092 
Q 1538 4750 2522 4750 
z
" transform="scale(0.015625)"/>
       <path id="DejaVuSans-62" d="M 3116 1747 
Q 3116 2381 2855 2742 
Q 2594 3103 2138 3103 
Q 1681 3103 1420 2742 
Q 1159 2381 1159 1747 
Q 1159 1113 1420 752 
Q 1681 391 2138 391 
Q 2594 391 2855 752 
Q 3116 1113 3116 1747 
z
M 1159 2969 
Q 1341 3281 1617 3432 
Q 1894 3584 2278 3584 
Q 2916 3584 3314 3078 
Q 3713 2572 3713 1747 
Q 3713 922 3314 415 
Q 2916 -91 2278 -91 
Q 1894 -91 1617 61 
Q 1341 213 1159 525 
L 1159 0 
L 581 0 
L 581 4863 
L 1159 4863 
L 1159 2969 
z
" transform="scale(0.015625)"/>
       <path id="DejaVuSans-76" d="M 191 3500 
L 800 3500 
L 1894 563 
L 2988 3500 
L 3597 3500 
L 2284 0 
L 1503 0 
L 191 3500 
z
" transform="scale(0.015625)"/>
       <path id="DejaVuSans-64" d="M 2906 2969 
L 2906 4863 
L 3481 4863 
L 3481 0 
L 2906 0 
L 2906 525 
Q 2725 213 2448 61 
Q 2172 -91 1784 -91 
Q 1150 -91 751 415 
Q 353 922 353 1747 
Q 353 2572 751 3078 
Q 1150 3584 1784 3584 
Q 2172 3584 2448 3432 
Q 2725 3281 2906 2969 
z
M 947 1747 
Q 947 1113 1208 752 
Q 1469 391 1925 391 
Q 2381 391 2643 752 
Q 2906 1113 2906 1747 
Q 2906 2381 2643 2742 
Q 2381 3103 1925 3103 
Q 1469 3103 1208 2742 
Q 947 2381 947 1747 
z
" transform="scale(0.015625)"/>
      </defs>
      <use xlink:href="#DejaVuSans-4f"/>
      <use xlink:href="#DejaVuSans-62" transform="translate(78.710938 0)"/>
      <use xlink:href="#DejaVuSans-73" transform="translate(142.1875 0)"/>
      <use xlink:href="#DejaVuSans-65" transform="translate(194.287109 0)"/>
      <use xlink:href="#DejaVuSans-72" transform="translate(255.810547 0)"/>
      <use xlink:href="#DejaVuSans-76" transform="translate(296.923828 0)"/>
      <use xlink:href="#DejaVuSans-65" transform="translate(356.103516 0)"/>
      <use xlink:href="#DejaVuSans-64" transform="translate(417.626953 0)"/>
     </g>
    </g>
    <g id="line2d_24">
     <path d="M 214.866 69.248562 
L 224.866 69.248562 
L 234.866 69.248562 
" style="fill: none; stroke-dasharray: 2,3.3; stroke-dashoffset: 0; stroke: #000000; stroke-opacity: 0.5; stroke-width: 2"/>
    </g>
    <g id="text_26">
     <!-- Theoretical O(V^2 + E) -->
     <g transform="translate(242.866 72.748562) scale(0.1 -0.1)">
      <defs>
       <path id="DejaVuSans-63" d="M 3122 3366 
L 3122 2828 
Q 2878 2963 2633 3030 
Q 2388 3097 2138 3097 
Q 1578 3097 1268 2742 
Q 959 2388 959 1747 
Q 959 1106 1268 751 
Q 1578 397 2138 397 
Q 2388 397 2633 464 
Q 2878 531 3122 666 
L 3122 134 
Q 2881 22 2623 -34 
Q 2366 -91 2075 -91 
Q 1284 -91 818 406 
Q 353 903 353 1747 
Q 353 2603 823 3093 
Q 1294 3584 2113 3584 
Q 2378 3584 2631 3529 
Q 2884 3475 3122 3366 
z
" transform="scale(0.015625)"/>
       <path id="DejaVuSans-6c" d="M 603 4863 
L 1178 4863 
L 1178 0 
L 603 0 
L 603 4863 
z
" transform="scale(0.015625)"/>
       <path id="DejaVuSans-28" d="M 1984 4856 
Q 1566 4138 1362 3434 
Q 1159 2731 1159 2009 
Q 1159 1288 1364 580 
Q 1569 -128 1984 -844 
L 1484 -844 
Q 1016 -109 783 600 
Q 550 1309 550 2009 
Q 550 2706 781 3412 
Q 1013 4119 1484 4856 
L 1984 4856 
z
" transform="scale(0.015625)"/>
       <path id="DejaVuSans-5e" d="M 2988 4666 
L 4684 2925 
L 4056 2925 
L 2681 4159 
L 1306 2925 
L 678 2925 
L 2375 4666 
L 2988 4666 
z
" transform="scale(0.015625)"/>
       <path id="DejaVuSans-2b" d="M 2944 4013 
L 2944 2272 
L 4684 2272 
L 4684 1741 
L 2944 1741 
L 2944 0 
L 2419 0 
L 2419 1741 
L 678 1741 
L 678 2272 
L 2419 2272 
L 2419 4013 
L 2944 4013 
z
" transform="scale(0.015625)"/>
       <path id="DejaVuSans-29" d="M 513 4856 
L 1013 4856 
Q 1481 4119 1714 3412 
Q 1947 2706 1947 2009 
Q 1947 1309 1714 600 
Q 1481 -109 1013 -844 
L 513 -844 
Q 928 -128 1133 580 
Q 1338 1288 1338 2009 
Q 1338 2731 1133 3434 
Q 928 4138 513 4856 
z
" transform="scale(0.015625)"/>
      </defs>
      <use xlink:href="#DejaVuSans-54"/>
      <use xlink:href="#DejaVuSans-68" transform="translate(61.083984 0)"/>
      <use xlink:href="#DejaVuSans-65" transform="translate(124.462891 0)"/>
      <use xlink:href="#DejaVuSans-6f" transform="translate(185.986328 0)"/>
      <use xlink:href="#DejaVuSans-72" transform="translate(247.167969 0)"/>
      <use xlink:href="#DejaVuSans-65" transform="translate(286.03125 0)"/>
      <use xlink:href="#DejaVuSans-74" transform="translate(347.554688 0)"/>
      <use xlink:href="#DejaVuSans-69" transform="translate(386.763672 0)"/>
      <use xlink:href="#DejaVuSans-63" transform="translate(414.546875 0)"/>
      <use xlink:href="#DejaVuSans-61" transform="translate(469.527344 0)"/>
      <use xlink:href="#DejaVuSans-6c" transform="translate(530.806641 0)"/>
      <use xlink:href="#DejaVuSans-20" transform="translate(558.589844 0)"/>
      <use xlink:href="#DejaVuSans-4f" transform="translate(590.376953 0)"/>
      <use xlink:href="#DejaVuSans-28" transform="translate(669.087891 0)"/>
      <use xlink:href="#DejaVuSans-56" transform="translate(708.101562 0)"/>
      <use xlink:href="#DejaVuSans-5e" transform="translate(776.509766 0)"/>
      <use xlink:href="#DejaVuSans-32" transform="translate(860.298828 0)"/>
      <use xlink:href="#DejaVuSans-20" transform="translate(923.921875 0)"/>
      <use xlink:href="#DejaVuSans-2b" transform="translate(955.708984 0)"/>
      <use xlink:href="#DejaVuSans-20" transform="translate(1039.498047 0)"/>
      <use xlink:href="#DejaVuSans-45" transform="translate(1071.285156 0)"/>
      <use xlink:href="#DejaVuSans-29" transform="translate(1134.46875 0)"/>
     </g>
    </g>
   </g>
  </g>
 </g>
 <defs>
  <clipPath id="p0bfb9ff7ca">
   <rect x="103.104" y="41.472" width="266.112" height="266.112"/>
  </clipPath>
 </defs>
</svg>
